# xmcd
#
# Track frame offsets:
#	182
#	17440
#	29975
#	41052
#	59950
#	76547
#	88102
#	115650
#	128917
#	142680
#	157870
#	172010
#	188807
#	204635
#	220042
#
# Disc length: 3196 seconds
#
# Revision: 2
# Processed by: cddbd v1.5.1PL0 Copyright (c) Steve Scherf et al.
# Submitted via: MusicManager 7.2.0.0 
#
DISCID=ca0c7a0f
DTITLE=Confederate Railroad - Rockin' Country Party Pack
DYEAR=2000
DGENRE=Country
TTITLE0=I Am Just A Rebel
TTITLE1=She Took It Like A Man
TTITLE2=When And Where
TTITLE3=When You Leave That Way You Can Never Go Back
TTITLE4=Bill's Laundromat, Bar And Grill
TTITLE5=The Big One
TTITLE6=Queen Of Memphis (Club Mix)
TTITLE7=Toss A Little Bone (Party Mix)
TTITLE8=I Hate Rap
TTITLE9=Jesus And Mama
TTITLE10=Elvis And Andy
TTITLE11=Daddy Never Was The Cadillac Kind
TTITLE12=Tonight Is Mine
TTITLE13=She Never Cried
TTITLE14=Trashy Women (Cub Mix)
EXTD=
EXTT0=
EXTT1=
EXTT2=
EXTT3=
EXTT4=
EXTT5=
EXTT6=
EXTT7=
EXTT8=
EXTT9=
EXTT10=
EXTT11=
EXTT12=
EXTT13=
EXTT14=
PLAYORDER=
